<svg width="87" height="82" viewBox="0 0 87 82" fill="none" xmlns="http://www.w3.org/2000/svg">
    <path d="M79.7499 0H7.25004C6.44971 0 5.8001 0.610836 5.8001 1.36661V80.6332C5.8001 81.389 6.44971 81.9998 7.25004 81.9998H79.7501C80.5504 81.9998 81.2 81.389 81.2 80.6332V1.36661C81.2 0.610836 80.5504 0 79.7499 0ZM78.3 79.2666H8.69999V2.73339H78.3V79.2666Z" fill="black"/>
    <path d="M79.7499 39.6334H7.25004C6.44971 39.6334 5.8001 40.2442 5.8001 41C5.8001 41.7558 6.44971 42.3666 7.25004 42.3666H79.7501C80.5504 42.3666 81.2 41.7558 81.2 41C81.2 40.2442 80.5504 39.6334 79.7499 39.6334Z" fill="black"/>
    <path d="M43.5 31.4334C37.903 31.4334 33.3501 35.7261 33.3501 41C33.3501 46.274 37.9031 50.5666 43.5 50.5666C49.0969 50.5666 53.65 46.274 53.65 41C53.65 35.7261 49.0971 31.4334 43.5 31.4334ZM43.5 47.8334C39.5024 47.8334 36.25 44.768 36.25 41C36.25 37.2322 39.5023 34.1666 43.5 34.1666C47.4976 34.1666 50.7501 37.232 50.7501 41C50.7501 44.7678 47.4976 47.8334 43.5 47.8334Z" fill="black"/>
    <path d="M62.3499 62.8666H24.65C23.8497 62.8666 23.2001 63.4774 23.2001 64.2332V80.6332C23.2001 81.389 23.8497 81.9998 24.65 81.9998H62.3501C63.1504 81.9998 63.8 81.389 63.8 80.6332V64.2332C63.8 63.4776 63.1504 62.8666 62.3499 62.8666ZM60.9 79.2666H26.1V65.6H60.9V79.2666Z" fill="black"/>
    <path d="M53.6499 71.0666H33.35C32.5497 71.0666 31.9 71.6774 31.9 72.4332V80.6332C31.9 81.389 32.5497 81.9998 33.35 81.9998H53.65C54.4504 81.9998 55.1 81.389 55.1 80.6332V72.4332C55.1 71.6776 54.4504 71.0666 53.6499 71.0666ZM52.1999 79.2666H34.7999V73.8H52.1999V79.2666Z" fill="black"/>
    <path d="M43.5 54.6666C37.104 54.6666 31.8999 58.9593 31.8999 64.2332C31.8999 64.989 32.5495 65.5998 33.3499 65.5998H53.6499C54.4503 65.5998 55.0999 64.989 55.0999 64.2332C55.1 58.9595 49.896 54.6666 43.5 54.6666ZM34.9755 62.8666C35.7831 59.7521 39.3009 57.4 43.5015 57.4C47.7022 57.4 51.2183 59.7521 52.026 62.8666H34.9755Z" fill="black"/>
    <path d="M62.3499 0H24.65C23.8497 0 23.2001 0.610836 23.2001 1.36661V17.7666C23.2001 18.5224 23.8497 19.1332 24.65 19.1332H62.3501C63.1504 19.1332 63.8 18.5224 63.8 17.7666V1.36661C63.8 0.610836 63.1504 0 62.3499 0ZM60.9 16.4H26.1V2.73339H60.9V16.4Z" fill="black"/>
    <path d="M53.6499 0H33.35C32.5497 0 31.9 0.610836 31.9 1.36661V9.56661C31.9 10.3224 32.5497 10.9332 33.35 10.9332H53.65C54.4504 10.9332 55.1 10.3224 55.1 9.56661V1.36661C55.1 0.610836 54.4504 0 53.6499 0ZM52.1999 8.2H34.7999V2.73339H52.1999V8.2Z" fill="black"/>
    <path d="M53.6499 16.4H33.35C32.5497 16.4 31.9 17.0108 31.9 17.7666C31.9 23.0406 37.1041 27.3333 43.5001 27.3333C49.8961 27.3333 55.1002 23.0406 55.1002 17.7666C55.1 17.0108 54.4504 16.4 53.6499 16.4ZM43.4999 24.6C39.2993 24.6 35.7831 22.248 34.9755 19.1334H52.0246C51.2168 22.248 47.7006 24.6 43.4999 24.6Z" fill="black"/>
    <path d="M7.25004 71.0666C6.44971 71.0666 5.8001 71.6774 5.8001 72.4332V80.6332C5.8001 81.389 6.44971 81.9998 7.25004 81.9998H15.95C16.7504 81.9998 17.4 81.389 17.4 80.6332C17.4 75.3594 12.8469 71.0666 7.25004 71.0666ZM8.69999 79.2666V73.938C11.5362 74.4819 13.7764 76.5934 14.355 79.2666H8.69999Z" fill="black"/>
    <path d="M79.7499 71.0666C74.1529 71.0666 69.6 75.3593 69.6 80.6332C69.6 81.389 70.2496 81.9998 71.05 81.9998H79.7499C80.5503 81.9998 81.1999 81.389 81.1999 80.6332V72.4332C81.2001 71.6776 80.5505 71.0666 79.7499 71.0666ZM78.3 79.2666H72.645C73.2236 76.5934 75.4638 74.4819 78.3 73.938V79.2666Z" fill="black"/>
    <path d="M15.95 0H7.25004C6.44971 0 5.8001 0.610836 5.8001 1.36661V9.56661C5.8001 10.3224 6.44971 10.9332 7.25004 10.9332C12.8471 10.9332 17.4 6.64056 17.4 1.36661C17.4 0.610836 16.7504 0 15.95 0ZM8.69999 8.06195V2.73339H14.355C13.7764 5.40655 11.5362 7.51805 8.69999 8.06195Z" fill="black"/>
    <path d="M79.7499 0H71.05C70.2496 0 69.6 0.610836 69.6 1.36661C69.6 6.64056 74.1531 10.9332 79.7499 10.9332C80.5503 10.9332 81.1999 10.3224 81.1999 9.56661V1.36661C81.2001 0.610836 80.5505 0 79.7499 0ZM78.3 8.06195C75.4638 7.51805 73.2236 5.40655 72.645 2.73339H78.3V8.06195Z" fill="black"/>
</svg>
